<svg xmlns="http://www.w3.org/2000/svg" viewBox="0 0 1200 630" role="img" aria-label="Vic Wen — Software Engineer & Open Source Contributor">
  <defs>
    <radialGradient id="violetA" cx="76%" cy="20%" r="52%">
      <stop offset="0%" stop-color="#8b5cf6" stop-opacity="0.68" />
      <stop offset="58%" stop-color="#6d28d9" stop-opacity="0.2" />
      <stop offset="100%" stop-color="#0a0613" stop-opacity="0" />
    </radialGradient>
    <radialGradient id="violetB" cx="16%" cy="88%" r="48%">
      <stop offset="0%" stop-color="#7c3aed" stop-opacity="0.5" />
      <stop offset="100%" stop-color="#0a0613" stop-opacity="0" />
    </radialGradient>
    <linearGradient id="text" x1="120" y1="170" x2="900" y2="470" gradientUnits="userSpaceOnUse">
      <stop stop-color="#ffffff" />
      <stop offset="1" stop-color="#ddd6fe" />
    </linearGradient>
    <pattern id="grid" width="72" height="72" patternUnits="userSpaceOnUse">
      <path d="M72 0H0V72" fill="none" stroke="#ffffff" stroke-opacity="0.055" />
    </pattern>
  </defs>
  <rect width="1200" height="630" fill="#0a0613" />
  <rect width="1200" height="630" fill="url(#grid)" />
  <rect width="1200" height="630" fill="url(#violetA)" />
  <rect width="1200" height="630" fill="url(#violetB)" />

  <g transform="translate(96 92)">
    <rect width="92" height="92" rx="26" fill="#0f0a1c" stroke="#8b5cf6" stroke-opacity="0.38" />
    <path d="M19 25h12l11 41 11-41h10l11 41 11-41h12L80 72H67L58 38l-9 34H36L19 25Z" fill="#f5f3ff" />
    <circle cx="82" cy="76" r="5" fill="#a78bfa" />
  </g>

  <text x="96" y="286" fill="url(#text)" font-family="Inter, ui-sans-serif, system-ui, -apple-system, BlinkMacSystemFont, 'Segoe UI', sans-serif" font-size="106" font-weight="900" letter-spacing="-8">Vic Wen.</text>
  <text x="101" y="362" fill="#a78bfa" font-family="Inter, ui-sans-serif, system-ui, -apple-system, BlinkMacSystemFont, 'Segoe UI', sans-serif" font-size="30" font-weight="700" letter-spacing="6">SOFTWARE ENGINEER · OPEN SOURCE</text>
  <text x="101" y="426" fill="#d4d4d8" font-family="Inter, ui-sans-serif, system-ui, -apple-system, BlinkMacSystemFont, 'Segoe UI', sans-serif" font-size="28" font-weight="400">Backend systems, data infrastructure, and engineering notes.</text>

  <path d="M101 500h216" stroke="#8b5cf6" stroke-width="4" stroke-linecap="round" />
  <path d="M329 500h80" stroke="#ffffff" stroke-opacity="0.16" stroke-width="4" stroke-linecap="round" />
</svg>
